STARTFONT 2.1
FONT -Adobe-Helvetica-Bold-R-Normal--14-140-75-75-P-82-ISO8859-2
SIZE 14 75 75
FONTBOUNDINGBOX 16 17 -1 -3
COMMENT $XConsortium: helvB14.bdf,v 1.14 95/01/26 18:01:39 gildea Exp $
COMMENT 
COMMENT +
COMMENT  Copyright 1984-1989, 1994 Adobe Systems Incorporated.
COMMENT  Copyright 1988, 1994 Digital Equipment Corporation.
COMMENT
COMMENT  Adobe is a trademark of Adobe Systems Incorporated which may be
COMMENT  registered in certain jurisdictions.
COMMENT  Permission to use these trademarks is hereby granted only in
COMMENT  association with the images described in this file.
COMMENT
COMMENT  Permission to use, copy, modify, distribute and sell this software
COMMENT  and its documentation for any purpose and without fee is hereby
COMMENT  granted, provided that the above copyright notices appear in all
COMMENT  copies and that both those copyright notices and this permission
COMMENT  notice appear in supporting documentation, and that the names of
COMMENT  Adobe Systems and Digital Equipment Corporation not be used in
COMMENT  advertising or publicity pertaining to distribution of the software
COMMENT  without specific, written prior permission.  Adobe Systems and
COMMENT  Digital Equipment Corporation make no representations about the
COMMENT  suitability of this software for any purpose.  It is provided "as
COMMENT  is" without express or implied warranty.
COMMENT -
COMMENT  
COMMENT  Translation to ISO8859-2 by Cub Soft;  Petr.Kolar@vslib.cz
COMMENT  
STARTPROPERTIES 28
FOUNDRY "Adobe"
FAMILY_NAME "Helvetica"
WEIGHT_NAME "Bold"
SLANT "R"
SETWIDTH_NAME "Normal"
ADD_STYLE_NAME ""
PIXEL_SIZE 14
POINT_SIZE 140
RESOLUTION_X 75
RESOLUTION_Y 75
SPACING "P"
AVERAGE_WIDTH 82
CHARSET_REGISTRY "ISO8859"
CHARSET_ENCODING "2"
CAP_HEIGHT 11
X_HEIGHT 8
FONT_ASCENT 13
FONT_DESCENT 3
FACE_NAME "Helvetica Bold"

STARTCHAR space
ENCODING 32
SWIDTH 278 0
DWIDTH 4 0
BBX 1 1 0 0
BITMAP
00
ENDCHAR
STARTCHAR exclam
ENCODING 33
SWIDTH 333 0
DWIDTH 4 0
BBX 2 11 1 0
BITMAP
c0
c0
c0
c0
c0
c0
80
80
00
c0
c0
ENDCHAR
STARTCHAR quotedbl
ENCODING 34
SWIDTH 474 0
DWIDTH 7 0
BBX 5 3 1 8
BITMAP
d8
d8
90
ENDCHAR
STARTCHAR numbersign
ENCODING 35
SWIDTH 556 0
DWIDTH 9 0
BBX 9 10 0 0
BITMAP
1b00
1b00
1b00
7f80
3600
3600
ff00
6c00
6c00
6c00
ENDCHAR
STARTCHAR dollar
ENCODING 36
SWIDTH 556 0
DWIDTH 8 0
BBX 7 13 0 -2
BITMAP
10
7c
d6
d6
f0
78
1c
16
d6
d6
7c
10
10
ENDCHAR
STARTCHAR percent
ENCODING 37
SWIDTH 889 0
DWIDTH 13 0
BBX 12 10 0 0
BITMAP
7880
cd80
cd00
7b00
0600
0400
0de0
0b30
1b30
11e0
ENDCHAR
STARTCHAR ampersand
ENCODING 38
SWIDTH 722 0
DWIDTH 11 0
BBX 9 10 1 0
BITMAP
3800
6c00
6c00
3800
7300
fb00
ce00
c600
cf00
7d80
ENDCHAR
STARTCHAR apostrophe
ENCODING 39
SWIDTH 278 0
DWIDTH 5 0
BBX 3 3 1 8
BITMAP
e0
60
c0
ENDCHAR
STARTCHAR parenleft
ENCODING 40
SWIDTH 333 0
DWIDTH 5 0
BBX 4 14 0 -3
BITMAP
30
60
60
c0
c0
c0
c0
c0
c0
c0
c0
60
60
30
ENDCHAR
STARTCHAR parenright
ENCODING 41
SWIDTH 333 0
DWIDTH 5 0
BBX 4 14 1 -3
BITMAP
c0
60
60
30
30
30
30
30
30
30
30
60
60
c0
ENDCHAR
STARTCHAR asterisk
ENCODING 42
SWIDTH 389 0
DWIDTH 6 0
BBX 5 4 0 7
BITMAP
20
f8
70
d8
ENDCHAR
STARTCHAR plus
ENCODING 43
SWIDTH 584 0
DWIDTH 9 0
BBX 8 7 0 1
BITMAP
18
18
18
ff
18
18
18
ENDCHAR
STARTCHAR comma
ENCODING 44
SWIDTH 278 0
DWIDTH 4 0
BBX 3 3 0 -1
BITMAP
60
60
c0
ENDCHAR
STARTCHAR minus
ENCODING 45
SWIDTH 584 0
DWIDTH 9 0
BBX 7 1 1 4
BITMAP
fe
ENDCHAR
STARTCHAR period
ENCODING 46
SWIDTH 278 0
DWIDTH 4 0
BBX 2 2 1 0
BITMAP
c0
c0
ENDCHAR
STARTCHAR slash
ENCODING 47
SWIDTH 278 0
DWIDTH 4 0
BBX 4 11 0 0
BITMAP
30
30
20
20
60
60
60
40
40
c0
c0
ENDCHAR
STARTCHAR zero
ENCODING 48
SWIDTH 556 0
DWIDTH 8 0
BBX 7 10 0 0
BITMAP
38
6c
c6
c6
c6
c6
c6
c6
6c
38
ENDCHAR
STARTCHAR one
ENCODING 49
SWIDTH 556 0
DWIDTH 8 0
BBX 4 10 1 0
BITMAP
30
f0
30
30
30
30
30
30
30
30
ENDCHAR
STARTCHAR two
ENCODING 50
SWIDTH 556 0
DWIDTH 8 0
BBX 7 10 0 0
BITMAP
7c
e6
c6
0e
0c
38
70
e0
c0
fe
ENDCHAR
STARTCHAR three
ENCODING 51
SWIDTH 556 0
DWIDTH 8 0
BBX 7 10 0 0
BITMAP
7c
ce
c6
06
3c
06
06
c6
ce
7c
ENDCHAR
STARTCHAR four
ENCODING 52
SWIDTH 556 0
DWIDTH 8 0
BBX 8 10 0 0
BITMAP
0e
1e
36
66
c6
c6
ff
06
06
06
ENDCHAR
STARTCHAR five
ENCODING 53
SWIDTH 556 0
DWIDTH 8 0
BBX 7 10 0 0
BITMAP
7e
60
c0
f8
1c
06
06
c6
ec
78
ENDCHAR
STARTCHAR six
ENCODING 54
SWIDTH 556 0
DWIDTH 8 0
BBX 7 10 0 0
BITMAP
3c
76
66
c0
dc
f6
c6
c6
6e
3c
ENDCHAR
STARTCHAR seven
ENCODING 55
SWIDTH 556 0
DWIDTH 8 0
BBX 7 10 0 0
BITMAP
fe
06
0c
0c
18
18
30
30
60
60
ENDCHAR
STARTCHAR eight
ENCODING 56
SWIDTH 556 0
DWIDTH 8 0
BBX 7 10 0 0
BITMAP
7c
ee
c6
c6
7c
ee
c6
c6
c6
7c
ENDCHAR
STARTCHAR nine
ENCODING 57
SWIDTH 556 0
DWIDTH 8 0
BBX 7 10 0 0
BITMAP
7c
ee
c6
c6
e6
7e
06
c6
ce
7c
ENDCHAR
STARTCHAR colon
ENCODING 58
SWIDTH 333 0
DWIDTH 5 0
BBX 2 8 2 0
BITMAP
c0
c0
00
00
00
00
c0
c0
ENDCHAR
STARTCHAR semicolon
ENCODING 59
SWIDTH 333 0
DWIDTH 5 0
BBX 3 9 1 -1
BITMAP
60
60
00
00
00
00
60
60
c0
ENDCHAR
STARTCHAR less
ENCODING 60
SWIDTH 584 0
DWIDTH 8 0
BBX 6 5 1 2
BITMAP
1c
70
c0
70
1c
ENDCHAR
STARTCHAR equal
ENCODING 61
SWIDTH 584 0
DWIDTH 9 0
BBX 7 3 1 3
BITMAP
fe
00
fe
ENDCHAR
STARTCHAR greater
ENCODING 62
SWIDTH 584 0
DWIDTH 8 0
BBX 6 5 1 2
BITMAP
e0
38
0c
38
e0
ENDCHAR
STARTCHAR question
ENCODING 63
SWIDTH 611 0
DWIDTH 9 0
BBX 7 11 1 0
BITMAP
7c
c6
c6
06
0c
18
30
30
00
30
30
ENDCHAR
STARTCHAR at
ENCODING 64
SWIDTH 975 0
DWIDTH 14 0
BBX 13 12 0 -1
BITMAP
0f80
38e0
7070
66b0
cd98
d998
db18
db30
cee0
6000
3180
1f00
ENDCHAR
STARTCHAR A
ENCODING 65
SWIDTH 722 0
DWIDTH 10 0
BBX 10 11 0 0
BITMAP
0c00
0c00
1e00
1200
3300
3300
6180
7f80
6180
c0c0
c0c0
ENDCHAR
STARTCHAR B
ENCODING 66
SWIDTH 722 0
DWIDTH 10 0
BBX 8 11 1 0
BITMAP
fe
c7
c3
c3
c6
fc
c6
c3
c3
c7
fe
ENDCHAR
STARTCHAR C
ENCODING 67
SWIDTH 722 0
DWIDTH 11 0
BBX 9 11 1 0
BITMAP
1f00
7b80
6080
c000
c000
c000
c000
c000
6080
7b80
1f00
ENDCHAR
STARTCHAR D
ENCODING 68
SWIDTH 722 0
DWIDTH 11 0
BBX 9 11 1 0
BITMAP
fc00
c700
c300
c180
c180
c180
c180
c180
c300
c700
fc00
ENDCHAR
STARTCHAR E
ENCODING 69
SWIDTH 667 0
DWIDTH 9 0
BBX 7 11 1 0
BITMAP
fe
c0
c0
c0
c0
fe
c0
c0
c0
c0
fe
ENDCHAR
STARTCHAR F
ENCODING 70
SWIDTH 611 0
DWIDTH 9 0
BBX 7 11 1 0
BITMAP
fe
c0
c0
c0
c0
fc
c0
c0
c0
c0
c0
ENDCHAR
STARTCHAR G
ENCODING 71
SWIDTH 778 0
DWIDTH 11 0
BBX 9 11 1 0
BITMAP
1f00
7b80
6080
c000
c000
c780
c180
c180
6180
7b80
1e80
ENDCHAR
STARTCHAR H
ENCODING 72
SWIDTH 722 0
DWIDTH 10 0
BBX 8 11 1 0
BITMAP
c3
c3
c3
c3
c3
ff
c3
c3
c3
c3
c3
ENDCHAR
STARTCHAR I
ENCODING 73
SWIDTH 278 0
DWIDTH 4 0
BBX 2 11 1 0
BITMAP
c0
c0
c0
c0
c0
c0
c0
c0
c0
c0
c0
ENDCHAR
STARTCHAR J
ENCODING 74
SWIDTH 556 0
DWIDTH 8 0
BBX 7 11 0 0
BITMAP
06
06
06
06
06
06
06
c6
c6
ee
7c
ENDCHAR
STARTCHAR K
ENCODING 75
SWIDTH 722 0
DWIDTH 10 0
BBX 9 11 1 0
BITMAP
c300
c600
cc00
d800
f000
f000
d800
cc00
c600
c300
c180
ENDCHAR
STARTCHAR L
ENCODING 76
SWIDTH 611 0
DWIDTH 8 0
BBX 7 11 1 0
BITMAP
c0
c0
c0
c0
c0
c0
c0
c0
c0
c0
fe
ENDCHAR
STARTCHAR M
ENCODING 77
SWIDTH 833 0
DWIDTH 13 0
BBX 11 11 1 0
BITMAP
c060
c060
e0e0
e0e0
f1e0
d160
d160
db60
ca60
ce60
c460
ENDCHAR
STARTCHAR N
ENCODING 78
SWIDTH 722 0
DWIDTH 11 0
BBX 9 11 1 0
BITMAP
c180
e180
e180
d180
d980
c980
cd80
c580
c380
c380
c180
ENDCHAR
STARTCHAR O
ENCODING 79
SWIDTH 778 0
DWIDTH 12 0
BBX 10 11 1 0
BITMAP
1e00
7380
6180
c0c0
c0c0
c0c0
c0c0
c0c0
6180
7380
1e00
ENDCHAR
STARTCHAR P
ENCODING 80
SWIDTH 667 0
DWIDTH 10 0
BBX 8 11 1 0
BITMAP
fe
c7
c3
c3
c7
fe
c0
c0
c0
c0
c0
ENDCHAR
STARTCHAR Q
ENCODING 81
SWIDTH 778 0
DWIDTH 12 0
BBX 10 11 1 0
BITMAP
1e00
7380
6180
c0c0
c0c0
c0c0
c0c0
c6c0
6380
7380
1ec0
ENDCHAR
STARTCHAR R
ENCODING 82
SWIDTH 722 0
DWIDTH 11 0
BBX 9 11 1 0
BITMAP
fe00
c700
c300
c300
c700
fe00
c300
c300
c300
c300
c180
ENDCHAR
STARTCHAR S
ENCODING 83
SWIDTH 667 0
DWIDTH 10 0
BBX 8 11 1 0
BITMAP
7e
e7
c3
e0
78
1e
07
03
c3
ee
7c
ENDCHAR
STARTCHAR T
ENCODING 84
SWIDTH 611 0
DWIDTH 8 0
BBX 8 11 0 0
BITMAP
ff
18
18
18
18
18
18
18
18
18
18
ENDCHAR
STARTCHAR U
ENCODING 85
SWIDTH 722 0
DWIDTH 11 0
BBX 9 11 1 0
BITMAP
c180
c180
c180
c180
c180
c180
c180
c180
c180
6300
3e00
ENDCHAR
STARTCHAR V
ENCODING 86
SWIDTH 667 0
DWIDTH 10 0
BBX 10 11 0 0
BITMAP
c0c0
c0c0
6180
6180
7380
3300
3300
1e00
1e00
0c00
0c00
ENDCHAR
STARTCHAR W
ENCODING 87
SWIDTH 944 0
DWIDTH 14 0
BBX 14 11 0 0
BITMAP
c30c
c30c
c30c
6798
6498
6498
6cd8
2cd0
3870
1860
1860
ENDCHAR
STARTCHAR X
ENCODING 88
SWIDTH 667 0
DWIDTH 9 0
BBX 9 11 0 0
BITMAP
c180
c180
6300
3600
1c00
1c00
3600
6300
6300
c180
c180
ENDCHAR
STARTCHAR Y
ENCODING 89
SWIDTH 667 0
DWIDTH 10 0
BBX 10 11 0 0
BITMAP
c0c0
6180
6180
3300
3300
1e00
1e00
0c00
0c00
0c00
0c00
ENDCHAR
STARTCHAR Z
ENCODING 90
SWIDTH 611 0
DWIDTH 9 0
BBX 8 11 0 0
BITMAP
ff
03
06
0c
1c
18
30
70
60
c0
ff
ENDCHAR
STARTCHAR bracketleft
ENCODING 91
SWIDTH 333 0
DWIDTH 5 0
BBX 4 14 1 -3
BITMAP
f0
c0
c0
c0
c0
c0
c0
c0
c0
c0
c0
c0
c0
f0
ENDCHAR
STARTCHAR backslash
ENCODING 92
SWIDTH 278 0
DWIDTH 4 0
BBX 4 11 0 0
BITMAP
c0
c0
c0
40
60
60
60
20
30
30
30
ENDCHAR
STARTCHAR bracketright
ENCODING 93
SWIDTH 333 0
DWIDTH 5 0
BBX 4 14 0 -3
BITMAP
f0
30
30
30
30
30
30
30
30
30
30
30
30
f0
ENDCHAR
STARTCHAR asciicircum
ENCODING 94
SWIDTH 584 0
DWIDTH 8 0
BBX 6 4 1 7
BITMAP
30
78
cc
84
ENDCHAR
STARTCHAR underscore
ENCODING 95
SWIDTH 556 0
DWIDTH 8 0
BBX 8 1 0 -3
BITMAP
ff
ENDCHAR
STARTCHAR grave
ENCODING 96
SWIDTH 333 0
DWIDTH 5 0
BBX 3 2 1 9
BITMAP
c0
60
ENDCHAR
STARTCHAR a
ENCODING 97
SWIDTH 556 0
DWIDTH 8 0
BBX 7 8 1 0
BITMAP
78
cc
0c
7c
cc
cc
fc
76
ENDCHAR
STARTCHAR b
ENCODING 98
SWIDTH 611 0
DWIDTH 9 0
BBX 7 11 1 0
BITMAP
c0
c0
c0
f8
ec
c6
c6
c6
c6
ec
d8
ENDCHAR
STARTCHAR c
ENCODING 99
SWIDTH 556 0
DWIDTH 8 0
BBX 6 8 1 0
BITMAP
38
7c
c4
c0
c0
c4
7c
38
ENDCHAR
STARTCHAR d
ENCODING 100
SWIDTH 611 0
DWIDTH 9 0
BBX 7 11 1 0
BITMAP
06
06
06
3e
6e
c6
c6
c6
c6
6e
36
ENDCHAR
STARTCHAR e
ENCODING 101
SWIDTH 556 0
DWIDTH 8 0
BBX 6 8 1 0
BITMAP
78
cc
cc
fc
c0
c0
ec
78
ENDCHAR
STARTCHAR f
ENCODING 102
SWIDTH 333 0
DWIDTH 4 0
BBX 5 11 0 0
BITMAP
38
60
60
f0
60
60
60
60
60
60
60
ENDCHAR
STARTCHAR g
ENCODING 103
SWIDTH 611 0
DWIDTH 9 0
BBX 7 11 1 -3
BITMAP
3a
6e
c6
c6
c6
c6
6e
3e
06
ce
7c
ENDCHAR
STARTCHAR h
ENCODING 104
SWIDTH 611 0
DWIDTH 9 0
BBX 7 11 1 0
BITMAP
c0
c0
c0
dc
ee
c6
c6
c6
c6
c6
c6
ENDCHAR
STARTCHAR i
ENCODING 105
SWIDTH 278 0
DWIDTH 4 0
BBX 2 11 1 0
BITMAP
c0
c0
00
c0
c0
c0
c0
c0
c0
c0
c0
ENDCHAR
STARTCHAR j
ENCODING 106
SWIDTH 278 0
DWIDTH 4 0
BBX 3 14 0 -3
BITMAP
60
60
00
60
60
60
60
60
60
60
60
60
e0
c0
ENDCHAR
STARTCHAR k
ENCODING 107
SWIDTH 556 0
DWIDTH 8 0
BBX 6 11 1 0
BITMAP
c0
c0
c0
cc
d8
f0
f0
d8
d8
cc
cc
ENDCHAR
STARTCHAR l
ENCODING 108
SWIDTH 278 0
DWIDTH 4 0
BBX 2 11 1 0
BITMAP
c0
c0
c0
c0
c0
c0
c0
c0
c0
c0
c0
ENDCHAR
STARTCHAR m
ENCODING 109
SWIDTH 889 0
DWIDTH 12 0
BBX 10 8 1 0
BITMAP
db80
eec0
ccc0
ccc0
ccc0
ccc0
ccc0
ccc0
ENDCHAR
STARTCHAR n
ENCODING 110
SWIDTH 611 0
DWIDTH 9 0
BBX 7 8 1 0
BITMAP
dc
ee
c6
c6
c6
c6
c6
c6
ENDCHAR
STARTCHAR o
ENCODING 111
SWIDTH 611 0
DWIDTH 9 0
BBX 7 8 1 0
BITMAP
38
6c
c6
c6
c6
c6
6c
38
ENDCHAR
STARTCHAR p
ENCODING 112
SWIDTH 611 0
DWIDTH 9 0
BBX 7 11 1 -3
BITMAP
d8
ec
c6
c6
c6
c6
ec
f8
c0
c0
c0
ENDCHAR
STARTCHAR q
ENCODING 113
SWIDTH 611 0
DWIDTH 9 0
BBX 7 11 1 -3
BITMAP
36
6e
c6
c6
c6
c6
6e
3e
06
06
06
ENDCHAR
STARTCHAR r
ENCODING 114
SWIDTH 389 0
DWIDTH 6 0
BBX 5 8 1 0
BITMAP
d8
f8
c0
c0
c0
c0
c0
c0
ENDCHAR
STARTCHAR s
ENCODING 115
SWIDTH 556 0
DWIDTH 8 0
BBX 6 8 1 0
BITMAP
78
ec
c0
78
1c
0c
ec
78
ENDCHAR
STARTCHAR t
ENCODING 116
SWIDTH 333 0
DWIDTH 5 0
BBX 5 10 0 0
BITMAP
60
60
f8
60
60
60
60
60
68
30
ENDCHAR
STARTCHAR u
ENCODING 117
SWIDTH 611 0
DWIDTH 9 0
BBX 7 8 1 0
BITMAP
c6
c6
c6
c6
c6
c6
ee
76
ENDCHAR
STARTCHAR v
ENCODING 118
SWIDTH 556 0
DWIDTH 8 0
BBX 8 8 0 0
BITMAP
c3
c3
66
66
24
3c
18
18
ENDCHAR
STARTCHAR w
ENCODING 119
SWIDTH 778 0
DWIDTH 10 0
BBX 10 8 0 0
BITMAP
ccc0
ccc0
ccc0
6d80
6d80
3300
3300
3300
ENDCHAR
STARTCHAR x
ENCODING 120
SWIDTH 556 0
DWIDTH 7 0
BBX 7 8 0 0
BITMAP
c6
c6
6c
38
38
6c
c6
c6
ENDCHAR
STARTCHAR y
ENCODING 121
SWIDTH 556 0
DWIDTH 8 0
BBX 8 11 0 -3
BITMAP
c3
c3
66
66
24
3c
18
18
18
30
70
ENDCHAR
STARTCHAR z
ENCODING 122
SWIDTH 500 0
DWIDTH 6 0
BBX 6 8 0 0
BITMAP
fc
0c
18
30
30
60
c0
fc
ENDCHAR
STARTCHAR braceleft
ENCODING 123
SWIDTH 389 0
DWIDTH 6 0
BBX 5 14 0 -3
BITMAP
18
30
30
30
30
60
c0
60
30
30
30
30
30
18
ENDCHAR
STARTCHAR bar
ENCODING 124
SWIDTH 280 0
DWIDTH 4 0
BBX 2 14 1 -3
BITMAP
c0
c0
c0
c0
c0
c0
c0
c0
c0
c0
c0
c0
c0
c0
ENDCHAR
STARTCHAR braceright
ENCODING 125
SWIDTH 389 0
DWIDTH 6 0
BBX 5 14 1 -3
BITMAP
c0
60
60
60
60
30
18
30
60
60
60
60
60
c0
ENDCHAR
STARTCHAR asciitilde
ENCODING 126
SWIDTH 584 0
DWIDTH 9 0
BBX 7 3 1 3
BITMAP
72
de
8c
ENDCHAR
STARTCHAR nobreakspace
ENCODING 160
SWIDTH 278 0
DWIDTH 4 0
BBX 1 1 0 0
BITMAP
00
ENDCHAR
STARTCHAR Aogonek
ENCODING 161
SWIDTH 722 0
DWIDTH 10 0
BBX 10 14 0 -3
BITMAP
0c00
0c00
1e00
1200
3300
3300
6180
7f80
6180
c0c0
c0c0
0c00
1800
0e00
ENDCHAR
STARTCHAR breve
ENCODING 162
SWIDTH 333 0
DWIDTH 4 0
BBX 4 2 0 9
BITMAP
90
f0
ENDCHAR
STARTCHAR Lstroke
ENCODING 163
SWIDTH 611 0
DWIDTH 9 0
BBX 8 11 0 0
BITMAP
60
60
60
68
78
70
e0
e0
60
60
7f
ENDCHAR
STARTCHAR currency
ENCODING 164
SWIDTH 556 0
DWIDTH 8 0
BBX 7 6 0 2
BITMAP
c6
7c
6c
6c
7c
c6
ENDCHAR
STARTCHAR Lcaron
ENCODING 165
SWIDTH 611 0
DWIDTH 8 0
BBX 7 12 1 0
BITMAP
1c
cc
d8
c0
c0
c0
c0
c0
c0
c0
c0
fe
ENDCHAR
STARTCHAR Sacute
ENCODING 166
SWIDTH 667 0
DWIDTH 10 0
BBX 8 14 1 0
BITMAP
0c
18
00
7e
e7
c3
e0
78
1e
07
03
c3
ee
7c
ENDCHAR
STARTCHAR section
ENCODING 167
SWIDTH 556 0
DWIDTH 8 0
BBX 6 14 1 -3
BITMAP
78
cc
cc
e0
78
dc
cc
cc
ec
78
1c
cc
cc
78
ENDCHAR
STARTCHAR diaeresis
ENCODING 168
SWIDTH 333 0
DWIDTH 5 0
BBX 5 2 0 9
BITMAP
d8
d8
ENDCHAR
STARTCHAR Scaron
ENCODING 169
SWIDTH 667 0
DWIDTH 10 0
BBX 8 14 1 0
BITMAP
6c
38
00
7e
e7
c3
e0
78
1e
07
03
c3
ee
7c
ENDCHAR
STARTCHAR Scedilla
ENCODING 170
SWIDTH 667 0
DWIDTH 10 0
BBX 8 14 1 -3
BITMAP
7e
e7
c3
e0
78
1e
07
03
c3
ee
7c
0c
6c
38
ENDCHAR
STARTCHAR Tcaron
ENCODING 171
SWIDTH 611 0
DWIDTH 8 0
BBX 8 14 0 0
BITMAP
6c
38
00
ff
18
18
18
18
18
18
18
18
18
18
ENDCHAR
STARTCHAR Zacute
ENCODING 172
SWIDTH 611 0
DWIDTH 9 0
BBX 8 14 0 0
BITMAP
0c
18
00
ff
03
06
0c
1c
18
30
70
60
c0
ff
ENDCHAR
STARTCHAR hyphen
ENCODING 173
SWIDTH 333 0
DWIDTH 5 0
BBX 5 1 0 4
BITMAP
f8
ENDCHAR
STARTCHAR Zcaron
ENCODING 174
SWIDTH 611 0
DWIDTH 9 0
BBX 8 14 0 0
BITMAP
6c
38
00
ff
03
06
0c
1c
18
30
70
60
c0
ff
ENDCHAR
STARTCHAR Zabovedot
ENCODING 175
SWIDTH 611 0
DWIDTH 9 0
BBX 8 14 0 0
BITMAP
18
18
00
ff
03
06
0c
1c
18
30
70
60
c0
ff
ENDCHAR
STARTCHAR degree
ENCODING 176
SWIDTH 400 0
DWIDTH 6 0
BBX 4 4 1 6
BITMAP
60
90
90
60
ENDCHAR
STARTCHAR aogonek
ENCODING 177
SWIDTH 556 0
DWIDTH 8 0
BBX 7 11 1 -3
BITMAP
78
cc
0c
7c
cc
cc
fc
76
18
30
1c
ENDCHAR
STARTCHAR ogonek
ENCODING 178
SWIDTH 333 0
DWIDTH 4 0
BBX 4 3 0 -3
BITMAP
60
c0
70
ENDCHAR
STARTCHAR lstroke
ENCODING 179
SWIDTH 278 0
DWIDTH 4 0
BBX 4 11 0 0
BITMAP
60
60
60
60
70
e0
60
60
60
60
60
ENDCHAR
STARTCHAR acute
ENCODING 180
SWIDTH 333 0
DWIDTH 5 0
BBX 3 2 1 9
BITMAP
60
c0
ENDCHAR
STARTCHAR lcaron
ENCODING 181
SWIDTH 548 0
DWIDTH 8 0
BBX 6 12 1 0
BITMAP
1c
cc
d8
c0
c0
c0
c0
c0
c0
c0
c0
c0
ENDCHAR
STARTCHAR sacute
ENCODING 182
SWIDTH 556 0
DWIDTH 8 0
BBX 6 11 1 0
BITMAP
18
30
00
78
ec
c0
78
1c
0c
ec
78
ENDCHAR
STARTCHAR caron
ENCODING 183
SWIDTH 333 0
DWIDTH 5 0
BBX 5 2 0 9
BITMAP
d8
70
ENDCHAR
STARTCHAR cedilla
ENCODING 184
SWIDTH 333 0
DWIDTH 5 0
BBX 5 3 0 -3
BITMAP
18
d8
70
ENDCHAR
STARTCHAR scaron
ENCODING 185
SWIDTH 556 0
DWIDTH 8 0
BBX 6 11 1 0
BITMAP
d8
70
00
78
ec
c0
78
1c
0c
ec
78
ENDCHAR
STARTCHAR scedilla
ENCODING 186
SWIDTH 556 0
DWIDTH 8 0
BBX 6 11 1 -3
BITMAP
78
ec
c0
78
1c
0c
ec
78
18
d8
70
ENDCHAR
STARTCHAR tcaron
ENCODING 187
SWIDTH 480 0
DWIDTH 7 0
BBX 7 12 0 0
BITMAP
0e
06
6c
60
f8
60
60
60
60
60
68
30
ENDCHAR
STARTCHAR zacute
ENCODING 188
SWIDTH 500 0
DWIDTH 6 0
BBX 6 11 0 0
BITMAP
18
30
00
fc
0c
18
30
30
60
c0
fc
ENDCHAR
STARTCHAR doubleacute
ENCODING 189
SWIDTH 333 0
DWIDTH 6 0
BBX 6 2 0 9
BITMAP
6c
d8
ENDCHAR
STARTCHAR zcaron
ENCODING 190
SWIDTH 500 0
DWIDTH 6 0
BBX 6 11 0 0
BITMAP
d8
70
00
fc
0c
18
30
30
60
c0
fc
ENDCHAR
STARTCHAR zabovedot
ENCODING 191
SWIDTH 500 0
DWIDTH 6 0
BBX 6 11 0 0
BITMAP
30
30
00
fc
0c
18
30
30
60
c0
fc
ENDCHAR
STARTCHAR Racute
ENCODING 192
SWIDTH 722 0
DWIDTH 11 0
BBX 9 14 1 0
BITMAP
0c00
1800
0000
fe00
c700
c300
c300
c700
fe00
c300
c300
c300
c300
c180
ENDCHAR
STARTCHAR Aacute
ENCODING 193
SWIDTH 722 0
DWIDTH 10 0
BBX 10 14 0 0
BITMAP
0600
0c00
0000
0c00
0c00
1e00
1200
3300
3300
6180
7f80
6180
c0c0
c0c0
ENDCHAR
STARTCHAR Acircumflex
ENCODING 194
SWIDTH 722 0
DWIDTH 10 0
BBX 10 14 0 0
BITMAP
0e00
1b00
0000
0c00
0c00
1e00
1200
3300
3300
6180
7f80
6180
c0c0
c0c0
ENDCHAR
STARTCHAR Abreve
ENCODING 195
SWIDTH 722 0
DWIDTH 10 0
BBX 10 14 0 0
BITMAP
1200
1e00
0000
0c00
0c00
1e00
1200
3300
3300
6180
7f80
6180
c0c0
c0c0
ENDCHAR
STARTCHAR Adiaeresis
ENCODING 196
SWIDTH 722 0
DWIDTH 10 0
BBX 10 14 0 0
BITMAP
1b00
1b00
0000
0c00
0c00
1e00
1200
3300
3300
6180
7f80
6180
c0c0
c0c0
ENDCHAR
STARTCHAR Lacute
ENCODING 197
SWIDTH 611 0
DWIDTH 8 0
BBX 7 14 1 0
BITMAP
60
c0
00
c0
c0
c0
c0
c0
c0
c0
c0
c0
c0
fe
ENDCHAR
STARTCHAR Cacute
ENCODING 198
SWIDTH 722 0
DWIDTH 11 0
BBX 9 14 1 0
BITMAP
0600
0c00
0000
1f00
7b80
6080
c000
c000
c000
c000
c000
6080
7b80
1f00
ENDCHAR
STARTCHAR Ccedilla
ENCODING 199
SWIDTH 722 0
DWIDTH 11 0
BBX 9 14 1 -3
BITMAP
1f00
7b80
6080
c000
c000
c000
c000
c000
6080
7b80
1f00
0400
3600
1c00
ENDCHAR
STARTCHAR Ccaron
ENCODING 200
SWIDTH 722 0
DWIDTH 11 0
BBX 9 14 1 0
BITMAP
3600
1c00
0000
1f00
7b80
6080
c000
c000
c000
c000
c000
6080
7b80
1f00
ENDCHAR
STARTCHAR Eacute
ENCODING 201
SWIDTH 667 0
DWIDTH 9 0
BBX 7 14 1 0
BITMAP
0c
18
00
fe
c0
c0
c0
c0
fe
c0
c0
c0
c0
fe
ENDCHAR
STARTCHAR Eogonek
ENCODING 202
SWIDTH 667 0
DWIDTH 9 0
BBX 7 14 1 -3
BITMAP
fe
c0
c0
c0
c0
fe
c0
c0
c0
c0
fe
18
30
1c
ENDCHAR
STARTCHAR Ediaeresis
ENCODING 203
SWIDTH 667 0
DWIDTH 9 0
BBX 7 14 1 0
BITMAP
6c
6c
00
fe
c0
c0
c0
c0
fe
c0
c0
c0
c0
fe
ENDCHAR
STARTCHAR Ecaron
ENCODING 204
SWIDTH 667 0
DWIDTH 9 0
BBX 7 14 1 0
BITMAP
6c
38
00
fe
c0
c0
c0
c0
fe
c0
c0
c0
c0
fe
ENDCHAR
STARTCHAR Iacute
ENCODING 205
SWIDTH 278 0
DWIDTH 4 0
BBX 3 14 1 0
BITMAP
60
c0
00
c0
c0
c0
c0
c0
c0
c0
c0
c0
c0
c0
ENDCHAR
STARTCHAR Icircumflex
ENCODING 206
SWIDTH 278 0
DWIDTH 4 0
BBX 5 14 0 0
BITMAP
70
d8
00
60
60
60
60
60
60
60
60
60
60
60
ENDCHAR
STARTCHAR Dcaron
ENCODING 207
SWIDTH 722 0
DWIDTH 11 0
BBX 9 14 1 0
BITMAP
6c00
3800
0000
fc00
c700
c300
c180
c180
c180
c180
c180
c300
c700
fc00
ENDCHAR
STARTCHAR Dstroke
ENCODING 208
SWIDTH 722 0
DWIDTH 11 0
BBX 10 11 0 0
BITMAP
7e00
6380
6180
60c0
60c0
f8c0
60c0
60c0
6180
6380
7e00
ENDCHAR
STARTCHAR Nacute
ENCODING 209
SWIDTH 722 0
DWIDTH 11 0
BBX 9 14 1 0
BITMAP
0600
0c00
0000
c180
e180
e180
d180
d980
c980
cd80
c580
c380
c380
c180
ENDCHAR
STARTCHAR Ncaron
ENCODING 210
SWIDTH 722 0
DWIDTH 11 0
BBX 9 14 1 0
BITMAP
3600
1c00
0000
c180
e180
e180
d180
d980
c980
cd80
c580
c380
c380
c180
ENDCHAR
STARTCHAR Oacute
ENCODING 211
SWIDTH 778 0
DWIDTH 12 0
BBX 10 14 1 0
BITMAP
0600
0c00
0000
1e00
7380
6180
c0c0
c0c0
c0c0
c0c0
c0c0
6180
7380
1e00
ENDCHAR
STARTCHAR Ocircumflex
ENCODING 212
SWIDTH 778 0
DWIDTH 12 0
BBX 10 14 1 0
BITMAP
0e00
1b00
0000
1e00
7380
6180
c0c0
c0c0
c0c0
c0c0
c0c0
6180
7380
1e00
ENDCHAR
STARTCHAR Odoubleacute
ENCODING 213
SWIDTH 778 0
DWIDTH 12 0
BBX 10 14 1 0
BITMAP
1b00
3600
0000
1e00
7380
6180
c0c0
c0c0
c0c0
c0c0
c0c0
6180
7380
1e00
ENDCHAR
STARTCHAR Odiaeresis
ENCODING 214
SWIDTH 778 0
DWIDTH 12 0
BBX 10 14 1 0
BITMAP
1b00
1b00
0000
1e00
7380
6180
c0c0
c0c0
c0c0
c0c0
c0c0
6180
7380
1e00
ENDCHAR
STARTCHAR multiply
ENCODING 215
SWIDTH 584 0
DWIDTH 9 0
BBX 8 7 0 1
BITMAP
c3
66
3c
18
3c
66
c3
ENDCHAR
STARTCHAR Rcaron
ENCODING 216
SWIDTH 722 0
DWIDTH 11 0
BBX 9 14 1 0
BITMAP
6c00
3800
0000
fe00
c700
c300
c300
c700
fe00
c300
c300
c300
c300
c180
ENDCHAR
STARTCHAR Uring
ENCODING 217
SWIDTH 722 0
DWIDTH 11 0
BBX 9 15 1 0
BITMAP
1c00
3600
1c00
0000
c180
c180
c180
c180
c180
c180
c180
c180
c180
6300
3e00
ENDCHAR
STARTCHAR Uacute
ENCODING 218
SWIDTH 722 0
DWIDTH 11 0
BBX 9 14 1 0
BITMAP
0600
0c00
0000
c180
c180
c180
c180
c180
c180
c180
c180
c180
6300
3e00
ENDCHAR
STARTCHAR Udoubleacute
ENCODING 219
SWIDTH 722 0
DWIDTH 11 0
BBX 9 14 1 0
BITMAP
1b00
3600
0000
c180
c180
c180
c180
c180
c180
c180
c180
c180
6300
3e00
ENDCHAR
STARTCHAR Udiaeresis
ENCODING 220
SWIDTH 722 0
DWIDTH 11 0
BBX 9 14 1 0
BITMAP
3600
3600
0000
c180
c180
c180
c180
c180
c180
c180
c180
c180
6300
3e00
ENDCHAR
STARTCHAR Yacute
ENCODING 221
SWIDTH 667 0
DWIDTH 10 0
BBX 10 14 0 0
BITMAP
0600
0c00
0000
c0c0
6180
6180
3300
3300
1e00
1e00
0c00
0c00
0c00
0c00
ENDCHAR
STARTCHAR Tcedilla
ENCODING 222
SWIDTH 611 0
DWIDTH 8 0
BBX 8 14 0 -3
BITMAP
ff
18
18
18
18
18
18
18
18
18
18
0c
6c
38
ENDCHAR
STARTCHAR ssharp
ENCODING 223
SWIDTH 611 0
DWIDTH 8 0
BBX 6 11 1 0
BITMAP
78
cc
cc
cc
d8
d8
cc
cc
cc
cc
d8
ENDCHAR
STARTCHAR racute
ENCODING 224
SWIDTH 389 0
DWIDTH 6 0
BBX 5 11 1 0
BITMAP
18
30
00
d8
f8
c0
c0
c0
c0
c0
c0
ENDCHAR
STARTCHAR aacute
ENCODING 225
SWIDTH 556 0
DWIDTH 8 0
BBX 7 11 1 0
BITMAP
18
30
00
78
cc
0c
7c
cc
cc
fc
76
ENDCHAR
STARTCHAR acircumflex
ENCODING 226
SWIDTH 556 0
DWIDTH 8 0
BBX 7 11 1 0
BITMAP
38
6c
00
78
cc
0c
7c
cc
cc
fc
76
ENDCHAR
STARTCHAR abreve
ENCODING 227
SWIDTH 556 0
DWIDTH 8 0
BBX 7 11 1 0
BITMAP
48
78
00
78
cc
0c
7c
cc
cc
fc
76
ENDCHAR
STARTCHAR adiaeresis
ENCODING 228
SWIDTH 556 0
DWIDTH 8 0
BBX 7 11 1 0
BITMAP
6c
6c
00
78
cc
0c
7c
cc
cc
fc
76
ENDCHAR
STARTCHAR lacute
ENCODING 229
SWIDTH 278 0
DWIDTH 4 0
BBX 3 14 1 0
BITMAP
60
c0
00
c0
c0
c0
c0
c0
c0
c0
c0
c0
c0
c0
ENDCHAR
STARTCHAR cacute
ENCODING 230
SWIDTH 556 0
DWIDTH 8 0
BBX 6 11 1 0
BITMAP
0c
18
00
38
7c
c4
c0
c0
c4
7c
38
ENDCHAR
STARTCHAR ccedilla
ENCODING 231
SWIDTH 556 0
DWIDTH 9 0
BBX 7 11 1 -3
BITMAP
3c
76
c6
c0
c0
c6
76
3c
08
6c
38
ENDCHAR
STARTCHAR ccaron
ENCODING 232
SWIDTH 556 0
DWIDTH 8 0
BBX 6 11 1 0
BITMAP
6c
38
00
38
7c
c4
c0
c0
c4
7c
38
ENDCHAR
STARTCHAR eacute
ENCODING 233
SWIDTH 556 0
DWIDTH 8 0
BBX 6 11 1 0
BITMAP
18
30
00
78
ec
cc
fc
c0
c0
ec
78
ENDCHAR
STARTCHAR eogonek
ENCODING 234
SWIDTH 556 0
DWIDTH 8 0
BBX 6 11 1 -3
BITMAP
78
cc
cc
fc
c0
c0
ec
78
30
60
38
ENDCHAR
STARTCHAR ediaeresis
ENCODING 235
SWIDTH 556 0
DWIDTH 8 0
BBX 6 11 1 0
BITMAP
6c
6c
00
78
ec
cc
fc
c0
c0
ec
78
ENDCHAR
STARTCHAR ecaron
ENCODING 236
SWIDTH 556 0
DWIDTH 8 0
BBX 6 11 1 0
BITMAP
d8
70
00
78
cc
cc
fc
c0
c0
ec
78
ENDCHAR
STARTCHAR iacute
ENCODING 237
SWIDTH 278 0
DWIDTH 4 0
BBX 3 11 1 0
BITMAP
60
c0
00
c0
c0
c0
c0
c0
c0
c0
c0
ENDCHAR
STARTCHAR icircumflex
ENCODING 238
SWIDTH 278 0
DWIDTH 4 0
BBX 5 11 0 0
BITMAP
70
d8
00
60
60
60
60
60
60
60
60
ENDCHAR
STARTCHAR dcaron
ENCODING 239
SWIDTH 891 0
DWIDTH 13 0
BBX 11 12 1 0
BITMAP
00e0
0660
06c0
0600
3e00
6e00
c600
c600
c600
c600
6e00
3600
ENDCHAR
STARTCHAR dstroke
ENCODING 240
SWIDTH 754 0
DWIDTH 11 0
BBX 9 11 1 0
BITMAP
0600
1f80
0600
3e00
6e00
c600
c600
c600
c600
6e00
3600
ENDCHAR
STARTCHAR nacute
ENCODING 241
SWIDTH 611 0
DWIDTH 9 0
BBX 7 11 1 0
BITMAP
0c
18
00
dc
ee
c6
c6
c6
c6
c6
c6
ENDCHAR
STARTCHAR ncaron
ENCODING 242
SWIDTH 611 0
DWIDTH 9 0
BBX 7 11 1 0
BITMAP
6c
38
00
dc
ee
c6
c6
c6
c6
c6
c6
ENDCHAR
STARTCHAR oacute
ENCODING 243
SWIDTH 611 0
DWIDTH 9 0
BBX 7 11 1 0
BITMAP
0c
18
00
38
6c
c6
c6
c6
c6
6c
38
ENDCHAR
STARTCHAR ocircumflex
ENCODING 244
SWIDTH 611 0
DWIDTH 9 0
BBX 7 11 1 0
BITMAP
38
6c
00
38
6c
c6
c6
c6
c6
6c
38
ENDCHAR
STARTCHAR odoubleacute
ENCODING 245
SWIDTH 611 0
DWIDTH 9 0
BBX 7 11 1 0
BITMAP
36
6c
00
38
6c
c6
c6
c6
c6
6c
38
ENDCHAR
STARTCHAR odiaeresis
ENCODING 246
SWIDTH 611 0
DWIDTH 9 0
BBX 7 11 1 0
BITMAP
6c
6c
00
38
6c
c6
c6
c6
c6
6c
38
ENDCHAR
STARTCHAR division
ENCODING 247
SWIDTH 584 0
DWIDTH 9 0
BBX 8 7 0 1
BITMAP
18
18
00
ff
00
18
18
ENDCHAR
STARTCHAR rcaron
ENCODING 248
SWIDTH 389 0
DWIDTH 6 0
BBX 5 11 1 0
BITMAP
d8
70
00
d8
f8
c0
c0
c0
c0
c0
c0
ENDCHAR
STARTCHAR uring
ENCODING 249
SWIDTH 611 0
DWIDTH 9 0
BBX 7 12 1 0
BITMAP
38
6c
38
00
c6
c6
c6
c6
c6
c6
ee
76
ENDCHAR
STARTCHAR uacute
ENCODING 250
SWIDTH 611 0
DWIDTH 9 0
BBX 7 11 1 0
BITMAP
0c
18
00
c6
c6
c6
c6
c6
c6
ee
76
ENDCHAR
STARTCHAR udoubleacute
ENCODING 251
SWIDTH 611 0
DWIDTH 9 0
BBX 7 11 1 0
BITMAP
36
6c
00
c6
c6
c6
c6
c6
c6
ee
76
ENDCHAR
STARTCHAR udiaeresis
ENCODING 252
SWIDTH 611 0
DWIDTH 9 0
BBX 7 11 1 0
BITMAP
6c
6c
00
c6
c6
c6
c6
c6
c6
ee
76
ENDCHAR
STARTCHAR yacute
ENCODING 253
SWIDTH 556 0
DWIDTH 8 0
BBX 8 14 0 -3
BITMAP
0c
18
00
c3
c3
66
66
24
3c
18
18
18
30
70
ENDCHAR
STARTCHAR tcedilla
ENCODING 254
SWIDTH 333 0
DWIDTH 5 0
BBX 5 13 0 -3
BITMAP
60
60
f8
60
60
60
60
60
68
30
18
d8
70
ENDCHAR
STARTCHAR abovedot
ENCODING 255
SWIDTH 333 0
DWIDTH 4 0
BBX 2 2 1 9
BITMAP
c0
c0
ENDCHAR
ENDFONT
